{"title":"Helix S01E06 HDTV x264 AAC [GWC].mp4","uid":9588312,"size":105614066,"categoryP":"video","categoryS":"tv_shows","magnet":"?xt=urn:btih:c9be9f0bff442fb1a9144c818f2958d3a9f14276&amp;dn=Helix+S01E06+HDTV+x264+AAC+%5BGWC%5D.mp4&amp;tr=udp%3A%2F%2Ftracker.openbittorrent.com%3A80&amp;tr=udp%3A%2F%2Fopen.demonii.com%3A1337&amp;tr=udp%3A%2F%2Ftracker.coppersurfer.tk%3A6969&amp;tr=udp%3A%2F%2Fexodus.desync.com%3A6969","seeders":1,"leechers":0,"uploader":"canc232","files":1,"time":1391857208,"description":"Helix S01E06 HDTV x264 AAC [GWC]\n\n\nA team of scientists are thrust into a potentially life-or-death situation in this thriller, which begins with the group being deployed to the Arctic to secretly investigate what could be a disease outbreak. \n\n\nSCREENS : &lt;a href=&quot;\nhttp://imageshack.com/a/img802/104/35cg.png&quot; rel=&quot;nofollow&quot; target=&quot;_NEW&quot;&gt;\nhttp://imageshack.com/a/img802/104/35cg.png&lt;/a&gt; &lt;a href=&quot;\nhttp://imageshack.com/a/img854/7325/iu4i.png&quot; rel=&quot;nofollow&quot; target=&quot;_NEW&quot;&gt;\nhttp://imageshack.com/a/img854/7325/iu4i.png&lt;/a&gt; &lt;a href=&quot;\nhttp://imageshack.com/a/img690/5432/xzmz.png&quot; rel=&quot;nofollow&quot; target=&quot;_NEW&quot;&gt;\nhttp://imageshack.com/a/img690/5432/xzmz.png&lt;/a&gt;\n\n\nMEDIA INFO :\nGeneral \nFormat : MPEG-4 \nFormat profile : Base Media \nFile size : 101 MiB \nDuration : 42mn 34s \nOverall bit rate : 331 Kbps \n\nVideo \nFormat : AVC \nFormat profile : &lt;a class=&quot;__cf_email__&quot; href=&quot;/cdn-cgi/l/email-protection&quot; data-cfemail=&quot;4d05242a250d017e637d&quot;&gt;[email&amp;#160;protected]&lt;/a&gt;&lt;script cf-hash='f9e31' type=&quot;text/javascript&quot;&gt;\n/* &lt;![CDATA[ */!function(){try{var t=&quot;currentScript&quot;in document?document.currentScript:function(){for(var t=document.getElementsByTagName(&quot;script&quot;),e=t.length;e--;)if(t[e].getAttribute(&quot;cf-hash&quot;))return t[e]}();if(t&amp;&amp;t.previousSibling){var e,r,n,i,c=t.previousSibling,a=c.getAttribute(&quot;data-cfemail&quot;);if(a){for(e=&quot;&quot;,r=parseInt(a.substr(0,2),16),n=2;a.length-n;n+=2)i=parseInt(a.substr(n,2),16)^r,e+=String.fromCharCode(i);e=document.createTextNode(e),c.parentNode.replaceChild(e,c)}}}catch(u){}}();/* ]]&gt; */&lt;/script&gt; \nFormat settings, CABAC : Yes \nFormat settings, ReFrames : 4 frames \nDuration : 42mn 34s \nBit rate : 264 Kbps \nMaximum bit rate : 1 247 Kbps \nWidth : 720 pixels \nHeight : 404 pixels \nDisplay aspect ratio : 16:9 \nFrame rate : 23.976 fps \nStream size : 80.3 MiB (80%) \nTitle : Helix S01E06 HDTV x264 AAC [GWC] \nWriting library : x264 core\n\nAudio \nFormat : AAC \nFormat profile : HE-AAC / LC \nDuration : 42mn 34s \nBit rate mode : Variable \nChannel(s) : 2 channels \nSampling rate : 48.0 KHz / 24.0 KHz \nStream size : 19.5 MiB (19%) \nLanguage : English ","torrent":{"xt":"urn:btih:c9be9f0bff442fb1a9144c818f2958d3a9f14276","amp;dn":"Helix+S01E06+HDTV+x264+AAC+%5BGWC%5D.mp4","amp;tr":["udp%3A%2F%2Ftracker.openbittorrent.com%3A80","udp%3A%2F%2Fopen.demonii.com%3A1337","udp%3A%2F%2Ftracker.coppersurfer.tk%3A6969","udp%3A%2F%2Fexodus.desync.com%3A6969"],"infoHash":"c9be9f0bff442fb1a9144c818f2958d3a9f14276","infoHashBuffer":{"type":"Buffer","data":[201,190,159,11,255,68,47,177,169,20,76,129,143,41,88,211,169,241,66,118]},"announce":[],"urlList":[]}}